<svg width="375" height="812" viewBox="0 0 375 812" fill="none" xmlns="http://www.w3.org/2000/svg">
<g id="Mask Group">
<mask id="mask0" mask-type="alpha" maskUnits="userSpaceOnUse" x="0" y="0" width="375" height="812">
<rect id="Rectangle 281" width="375" height="812" fill="#C4C4C4"/>
</mask>
<g mask="url(#mask0)">
<rect id="Rectangle 282" width="375" height="812" fill="#C4C4C4"/>
<rect id="Rectangle 283" width="375" height="812" fill="#C4C4C4"/>
<rect id="Rectangle 284" y="1" width="375" height="811" fill="#C4C4C4"/>
<g id="Group 196">
<rect id="Rectangle 274" width="375" height="812" fill="#FFFAFB"/>
<path id="Vector 17" d="M-140.961 115.775C-17.4605 79.2748 181 39.8828 209.5 -54.1172C280.333 -99.1172 347.6 -191.617 308 -37.6172C268.4 116.383 -16.2938 251.275 -162.961 290.775C-196.794 244.608 -239.761 144.975 -140.961 115.775Z" fill="#FFF5EF"/>
<path id="Vector 18" d="M36.0504 285.436C158.175 256.267 354.34 225.134 382.9 148.475C453.05 112.081 519.887 36.8537 480.102 162.482C440.317 288.11 158.57 396.821 13.5539 428.318C-19.6554 390.413 -61.6492 308.771 36.0504 285.436Z" fill="#FFF5EF"/>
<g id="Group 192">
<rect id="Rectangle 261" x="297" y="106" width="86" height="371" fill="#FFEFF9"/>
<g id="Group 191">
<g id="Group 182">
<g id="Group 180">
<rect id="Rectangle 264" x="360" y="342" width="16.3178" height="26" fill="#C1D3FF"/>
</g>
<g id="Group 181">
<rect id="Rectangle 264_2" x="360" y="377" width="16.3178" height="26" fill="#C1D3FF"/>
</g>
</g>
<g id="Group 183">
<g id="Group 180_2">
<rect id="Rectangle 264_3" x="360" y="412" width="16.3178" height="26" fill="#C1D3FF"/>
</g>
<g id="Group 181_2">
<rect id="Rectangle 264_4" x="360" y="447" width="16.3178" height="26" fill="#C1D3FF"/>
</g>
</g>
<g id="Group 184">
<g id="Group 180_3">
<rect id="Rectangle 264_5" x="360" y="482" width="16.3178" height="26" fill="#C1D3FF"/>
</g>
<g id="Group 181_3">
<rect id="Rectangle 264_6" x="360" y="517" width="16.3178" height="26" fill="#C1D3FF"/>
</g>
</g>
</g>
<g id="Group 190">
<g id="Group 182_2">
<g id="Group 180_4">
<rect id="Rectangle 264_7" x="312" y="342" width="16.3178" height="26" fill="#C1D3FF"/>
<rect id="Rectangle 265" x="336.477" y="342" width="16.3178" height="26" fill="#C1D3FF"/>
</g>
<g id="Group 181_4">
<rect id="Rectangle 264_8" x="312" y="377" width="16.3178" height="26" fill="#C1D3FF"/>
<rect id="Rectangle 265_2" x="336.477" y="377" width="16.3178" height="26" fill="#C1D3FF"/>
</g>
</g>
<g id="Group 183_2">
<g id="Group 180_5">
<rect id="Rectangle 264_9" x="312" y="412" width="16.3178" height="26" fill="#C1D3FF"/>
<rect id="Rectangle 265_3" x="336.477" y="412" width="16.3178" height="26" fill="#C1D3FF"/>
</g>
<g id="Group 181_5">
<rect id="Rectangle 264_10" x="312" y="447" width="16.3178" height="26" fill="#C1D3FF"/>
<rect id="Rectangle 265_4" x="336.477" y="447" width="16.3178" height="26" fill="#C1D3FF"/>
</g>
</g>
<g id="Group 184_2">
<g id="Group 180_6">
<rect id="Rectangle 264_11" x="312" y="482" width="16.3178" height="26" fill="#C1D3FF"/>
<rect id="Rectangle 265_5" x="336.477" y="482" width="16.3178" height="26" fill="#C1D3FF"/>
</g>
<g id="Group 181_6">
<rect id="Rectangle 264_12" x="312" y="517" width="16.3178" height="26" fill="#C1D3FF"/>
<rect id="Rectangle 265_6" x="336.477" y="517" width="16.3178" height="26" fill="#C1D3FF"/>
</g>
</g>
</g>
<g id="Group 185">
<g id="Group 182_3">
<g id="Group 180_7">
<rect id="Rectangle 264_13" x="312" y="132" width="16.3178" height="26" fill="#C1D3FF"/>
<rect id="Rectangle 265_7" x="336.477" y="132" width="16.3178" height="26" fill="#C1D3FF"/>
</g>
<g id="Group 181_7">
<rect id="Rectangle 264_14" x="312" y="167" width="16.3178" height="26" fill="#C1D3FF"/>
<rect id="Rectangle 265_8" x="336.477" y="167" width="16.3178" height="26" fill="#C1D3FF"/>
</g>
</g>
<g id="Group 183_3">
<g id="Group 180_8">
<rect id="Rectangle 264_15" x="312" y="202" width="16.3178" height="26" fill="#C1D3FF"/>
<rect id="Rectangle 265_9" x="336.477" y="202" width="16.3178" height="26" fill="#C1D3FF"/>
</g>
<g id="Group 181_8">
<rect id="Rectangle 264_16" x="312" y="237" width="16.3178" height="26" fill="#C1D3FF"/>
<rect id="Rectangle 265_10" x="336.477" y="237" width="16.3178" height="26" fill="#C1D3FF"/>
</g>
</g>
<g id="Group 184_3">
<g id="Group 180_9">
<rect id="Rectangle 264_17" x="312" y="272" width="16.3178" height="26" fill="#C1D3FF"/>
<rect id="Rectangle 265_11" x="336.477" y="272" width="16.3178" height="26" fill="#C1D3FF"/>
</g>
<g id="Group 181_9">
<rect id="Rectangle 264_18" x="312" y="307" width="16.3178" height="26" fill="#C1D3FF"/>
<rect id="Rectangle 265_12" x="336.477" y="307" width="16.3178" height="26" fill="#C1D3FF"/>
</g>
</g>
</g>
<g id="Group 189">
<g id="Group 182_4">
<g id="Group 180_10">
<rect id="Rectangle 264_19" x="360" y="132" width="16.3178" height="26" fill="#C1D3FF"/>
</g>
<g id="Group 181_10">
<rect id="Rectangle 264_20" x="360" y="167" width="16.3178" height="26" fill="#C1D3FF"/>
</g>
</g>
<g id="Group 183_4">
<g id="Group 180_11">
<rect id="Rectangle 264_21" x="360" y="202" width="16.3178" height="26" fill="#C1D3FF"/>
</g>
<g id="Group 181_11">
<rect id="Rectangle 264_22" x="360" y="237" width="16.3178" height="26" fill="#C1D3FF"/>
</g>
</g>
<g id="Group 184_4">
<g id="Group 180_12">
<rect id="Rectangle 264_23" x="360" y="272" width="16.3178" height="26" fill="#C1D3FF"/>
</g>
<g id="Group 181_12">
<rect id="Rectangle 264_24" x="360" y="307" width="16.3178" height="26" fill="#C1D3FF"/>
</g>
</g>
</g>
</g>
<g id="Group 188">
<path id="Rectangle 245" d="M-10 288.351L65 286V666H-10V288.351Z" fill="#FFE8F6"/>
<path id="Rectangle 247" d="M-5 237.682L46 236V289H-5V237.682Z" fill="#FFE8F6"/>
<path id="Rectangle 249" d="M-3 193H38V242H-3V193Z" fill="#FFE8F6"/>
<g id="Group 174">
<g id="Group 172">
<g id="Group 170">
<g id="Group 168">
<rect id="Rectangle 251" x="-0.493317" y="303.625" width="15.1138" height="12.1331" fill="#FFF8FC"/>
<rect id="Rectangle 252" x="20.3782" y="303.625" width="15.1138" height="12.1331" fill="#FFF8FC"/>
<rect id="Rectangle 253" x="41.2496" y="303.625" width="15.1138" height="12.1331" fill="#FFF8FC"/>
<rect id="Rectangle 254" x="-0.493347" y="322.229" width="15.1138" height="12.1331" fill="#FFF8FC"/>
<rect id="Rectangle 255" x="20.3782" y="322.229" width="15.1138" height="12.1331" fill="#FFF8FC"/>
<rect id="Rectangle 256" x="41.2496" y="322.229" width="15.1138" height="12.1331" fill="#FFF8FC"/>
</g>
<g id="Group 169">
<rect id="Rectangle 251_2" x="-0.493347" y="340.833" width="15.1138" height="12.1331" fill="#FFF8FC"/>
<rect id="Rectangle 252_2" x="20.3781" y="340.833" width="15.1138" height="12.1331" fill="#FFF8FC"/>
<rect id="Rectangle 253_2" x="41.2496" y="340.833" width="15.1138" height="12.1331" fill="#FFF8FC"/>
<rect id="Rectangle 254_2" x="-0.493378" y="359.437" width="15.1138" height="12.1331" fill="#FFF8FC"/>
<rect id="Rectangle 255_2" x="20.3781" y="359.437" width="15.1138" height="12.1331" fill="#FFF8FC"/>
<rect id="Rectangle 256_2" x="41.2496" y="359.437" width="15.1138" height="12.1331" fill="#FFF8FC"/>
</g>
</g>
<g id="Group 171">
<g id="Group 168_2">
<rect id="Rectangle 251_3" x="-0.493225" y="377.233" width="15.1138" height="12.1331" fill="#FFF8FC"/>
<rect id="Rectangle 252_3" x="20.3782" y="377.232" width="15.1138" height="12.1331" fill="#FFF8FC"/>
<rect id="Rectangle 253_3" x="41.2496" y="377.232" width="15.1138" height="12.1331" fill="#FFF8FC"/>
<rect id="Rectangle 254_3" x="-0.493347" y="395.836" width="15.1138" height="12.1331" fill="#FFF8FC"/>
<rect id="Rectangle 255_3" x="20.3782" y="395.836" width="15.1138" height="12.1331" fill="#FFF8FC"/>
<rect id="Rectangle 256_3" x="41.2496" y="395.836" width="15.1138" height="12.1331" fill="#FFF8FC"/>
</g>
<g id="Group 169_2">
<rect id="Rectangle 251_4" x="-0.493225" y="414.441" width="15.1138" height="12.1331" fill="#FFF8FC"/>
<rect id="Rectangle 252_4" x="20.3782" y="414.44" width="15.1138" height="12.1331" fill="#FFF8FC"/>
<rect id="Rectangle 253_4" x="41.2496" y="414.44" width="15.1138" height="12.1331" fill="#FFF8FC"/>
<rect id="Rectangle 254_4" x="-0.493347" y="433.044" width="15.1138" height="12.1331" fill="#FFF8FC"/>
<rect id="Rectangle 255_4" x="20.3782" y="433.044" width="15.1138" height="12.1331" fill="#FFF8FC"/>
<rect id="Rectangle 256_4" x="41.2496" y="433.044" width="15.1138" height="12.1331" fill="#FFF8FC"/>
</g>
</g>
</g>
<g id="Group 173">
<g id="Group 170_2">
<g id="Group 168_3">
<rect id="Rectangle 251_5" x="-0.493225" y="450.841" width="15.1138" height="12.1331" fill="#FFF8FC"/>
<rect id="Rectangle 252_5" x="20.3782" y="450.84" width="15.1138" height="12.1331" fill="#FFF8FC"/>
<rect id="Rectangle 253_5" x="41.2497" y="450.84" width="15.1138" height="12.1331" fill="#FFF8FC"/>
<rect id="Rectangle 254_5" x="-0.493317" y="469.444" width="15.1138" height="12.1331" fill="#FFF8FC"/>
<rect id="Rectangle 255_5" x="20.3782" y="469.444" width="15.1138" height="12.1331" fill="#FFF8FC"/>
<rect id="Rectangle 256_5" x="41.2497" y="469.444" width="15.1138" height="12.1331" fill="#FFF8FC"/>
</g>
<g id="Group 169_3">
<rect id="Rectangle 251_6" x="-0.493256" y="488.049" width="15.1138" height="12.1331" fill="#FFF8FC"/>
<rect id="Rectangle 252_6" x="20.3782" y="488.048" width="15.1138" height="12.1331" fill="#FFF8FC"/>
<rect id="Rectangle 253_6" x="41.2497" y="488.048" width="15.1138" height="12.1331" fill="#FFF8FC"/>
<rect id="Rectangle 254_6" x="-0.493317" y="506.652" width="15.1138" height="12.1331" fill="#FFF8FC"/>
<rect id="Rectangle 255_6" x="20.3782" y="506.652" width="15.1138" height="12.1331" fill="#FFF8FC"/>
<rect id="Rectangle 256_6" x="41.2497" y="506.652" width="15.1138" height="12.1331" fill="#FFF8FC"/>
</g>
</g>
<g id="Group 171_2">
<g id="Group 168_4">
<rect id="Rectangle 251_7" x="-0.493347" y="524.448" width="15.1138" height="12.1331" fill="#FFF8FC"/>
<rect id="Rectangle 252_7" x="20.3782" y="524.448" width="15.1138" height="12.1331" fill="#FFF8FC"/>
<rect id="Rectangle 253_7" x="41.2496" y="524.448" width="15.1138" height="12.1331" fill="#FFF8FC"/>
<rect id="Rectangle 254_7" x="-0.493347" y="543.052" width="15.1138" height="12.1331" fill="#FFF8FC"/>
<rect id="Rectangle 255_7" x="20.3782" y="543.052" width="15.1138" height="12.1331" fill="#FFF8FC"/>
<rect id="Rectangle 256_7" x="41.2496" y="543.052" width="15.1138" height="12.1331" fill="#FFF8FC"/>
</g>
<g id="Group 169_4">
<rect id="Rectangle 251_8" x="-0.493347" y="561.656" width="15.1138" height="12.1331" fill="#FFF8FC"/>
<rect id="Rectangle 252_8" x="20.3782" y="561.656" width="15.1138" height="12.1331" fill="#FFF8FC"/>
<rect id="Rectangle 253_8" x="41.2496" y="561.656" width="15.1138" height="12.1331" fill="#FFF8FC"/>
<rect id="Rectangle 254_8" x="-0.493347" y="580.26" width="15.1138" height="12.1331" fill="#FFF8FC"/>
<rect id="Rectangle 255_8" x="20.3782" y="580.26" width="15.1138" height="12.1331" fill="#FFF8FC"/>
<rect id="Rectangle 256_8" x="41.2496" y="580.26" width="15.1138" height="12.1331" fill="#FFF8FC"/>
</g>
</g>
<g id="Group 172_2">
<g id="Group 168_5">
<rect id="Rectangle 251_9" x="-0.493347" y="598.865" width="15.1138" height="12.1331" fill="#FFF8FC"/>
<rect id="Rectangle 252_9" x="20.3782" y="598.864" width="15.1138" height="12.1331" fill="#FFF8FC"/>
<rect id="Rectangle 253_9" x="41.2496" y="598.864" width="15.1138" height="12.1331" fill="#FFF8FC"/>
<rect id="Rectangle 254_9" x="-0.493347" y="617.468" width="15.1138" height="12.1331" fill="#FFF8FC"/>
<rect id="Rectangle 255_9" x="20.3782" y="617.468" width="15.1138" height="12.1331" fill="#FFF8FC"/>
<rect id="Rectangle 256_9" x="41.2496" y="617.468" width="15.1138" height="12.1331" fill="#FFF8FC"/>
</g>
</g>
</g>
</g>
</g>
<g id="Group 179">
<path id="Union" fill-rule="evenodd" clip-rule="evenodd" d="M408 498.165L370.244 455.445L271.83 498.165V646.795H408V498.165Z" fill="#FFE8F6"/>
<path id="Union_2" fill-rule="evenodd" clip-rule="evenodd" d="M370.62 455H323.45L230 498.61V646.795L271.83 646.35V498.414L370.62 455Z" fill="#A5BEFF"/>
<g id="Group 175">
<rect id="Rectangle 258" x="281" y="517" width="34" height="21" fill="#A5BEFF"/>
<rect id="Rectangle 259" x="323" y="517" width="34" height="21" fill="#A5BEFF"/>
<rect id="Rectangle 260" x="366" y="517" width="34" height="21" fill="#A5BEFF"/>
</g>
<g id="Group 176">
<rect id="Rectangle 258_2" x="281" y="547" width="34" height="21" fill="#A5BEFF"/>
<rect id="Rectangle 259_2" x="323" y="547" width="34" height="21" fill="#A5BEFF"/>
<rect id="Rectangle 260_2" x="366" y="547" width="34" height="21" fill="#A5BEFF"/>
</g>
<g id="Group 177">
<rect id="Rectangle 258_3" x="281" y="577" width="34" height="21" fill="#A5BEFF"/>
<rect id="Rectangle 259_3" x="323" y="577" width="34" height="21" fill="#A5BEFF"/>
<rect id="Rectangle 260_3" x="366" y="577" width="34" height="21" fill="#A5BEFF"/>
</g>
<g id="Group 178">
<rect id="Rectangle 258_4" x="281" y="607" width="34" height="21" fill="#A5BEFF"/>
<rect id="Rectangle 259_4" x="323" y="607" width="34" height="21" fill="#A5BEFF"/>
<rect id="Rectangle 260_4" x="366" y="607" width="34" height="21" fill="#A5BEFF"/>
</g>
</g>
<g id="Group 189_2">
<path id="Rectangle 245_2" d="M179 321.512L254 319.523V641H179V321.512Z" fill="#FFE8F6"/>
<path id="Rectangle 246" d="M141 317.831L179 321.149V641H141V317.831Z" fill="#A5BEFF"/>
<path id="Rectangle 247_2" d="M184 278.646L235 277.224V322.061H184V278.646Z" fill="#FFE8F6"/>
<path id="Rectangle 248" d="M156 277.224L184 279.543L184 322.061H156L156 277.224Z" fill="#A5BEFF"/>
<path id="Rectangle 249_2" d="M186 240.846H227V282.3H186V240.846Z" fill="#FFE8F6"/>
<path id="Rectangle 250" d="M164 240L186 240.641V282.3H164L164 240Z" fill="#A5BEFF"/>
<g id="Group 174_2">
<g id="Group 172_3">
<g id="Group 170_3">
<g id="Group 168_6">
<rect id="Rectangle 251_10" x="188.507" y="334.434" width="15.1138" height="10.2645" fill="#FFF8FC"/>
<rect id="Rectangle 252_10" x="209.378" y="334.434" width="15.1138" height="10.2645" fill="#FFF8FC"/>
<rect id="Rectangle 253_10" x="230.25" y="334.434" width="15.1138" height="10.2645" fill="#FFF8FC"/>
<rect id="Rectangle 254_10" x="188.507" y="350.173" width="15.1138" height="10.2645" fill="#FFF8FC"/>
<rect id="Rectangle 255_10" x="209.378" y="350.173" width="15.1138" height="10.2645" fill="#FFF8FC"/>
<rect id="Rectangle 256_10" x="230.25" y="350.173" width="15.1138" height="10.2645" fill="#FFF8FC"/>
</g>
<g id="Group 169_5">
<rect id="Rectangle 251_11" x="188.507" y="365.912" width="15.1138" height="10.2645" fill="#FFF8FC"/>
<rect id="Rectangle 252_11" x="209.378" y="365.912" width="15.1138" height="10.2645" fill="#FFF8FC"/>
<rect id="Rectangle 253_11" x="230.25" y="365.912" width="15.1138" height="10.2645" fill="#FFF8FC"/>
<rect id="Rectangle 254_11" x="188.507" y="381.65" width="15.1138" height="10.2645" fill="#FFF8FC"/>
<rect id="Rectangle 255_11" x="209.378" y="381.65" width="15.1138" height="10.2645" fill="#FFF8FC"/>
<rect id="Rectangle 256_11" x="230.25" y="381.65" width="15.1138" height="10.2645" fill="#FFF8FC"/>
</g>
</g>
<g id="Group 171_3">
<g id="Group 168_7">
<rect id="Rectangle 251_12" x="188.507" y="396.706" width="15.1138" height="10.2645" fill="#FFF8FC"/>
<rect id="Rectangle 252_12" x="209.378" y="396.705" width="15.1138" height="10.2645" fill="#FFF8FC"/>
<rect id="Rectangle 253_12" x="230.25" y="396.705" width="15.1138" height="10.2645" fill="#FFF8FC"/>
<rect id="Rectangle 254_12" x="188.507" y="412.444" width="15.1138" height="10.2645" fill="#FFF8FC"/>
<rect id="Rectangle 255_12" x="209.378" y="412.444" width="15.1138" height="10.2645" fill="#FFF8FC"/>
<rect id="Rectangle 256_12" x="230.25" y="412.444" width="15.1138" height="10.2645" fill="#FFF8FC"/>
</g>
<g id="Group 169_6">
<rect id="Rectangle 251_13" x="188.507" y="428.184" width="15.1138" height="10.2645" fill="#FFF8FC"/>
<rect id="Rectangle 252_13" x="209.378" y="428.183" width="15.1138" height="10.2645" fill="#FFF8FC"/>
<rect id="Rectangle 253_13" x="230.25" y="428.183" width="15.1138" height="10.2645" fill="#FFF8FC"/>
<rect id="Rectangle 254_13" x="188.507" y="443.922" width="15.1138" height="10.2645" fill="#FFF8FC"/>
<rect id="Rectangle 255_13" x="209.378" y="443.922" width="15.1138" height="10.2645" fill="#FFF8FC"/>
<rect id="Rectangle 256_13" x="230.25" y="443.922" width="15.1138" height="10.2645" fill="#FFF8FC"/>
</g>
</g>
</g>
<g id="Group 173_2">
<g id="Group 170_4">
<g id="Group 168_8">
<rect id="Rectangle 251_14" x="188.507" y="458.977" width="15.1138" height="10.2645" fill="#FFF8FC"/>
<rect id="Rectangle 252_14" x="209.378" y="458.977" width="15.1138" height="10.2645" fill="#FFF8FC"/>
<rect id="Rectangle 253_14" x="230.25" y="458.977" width="15.1138" height="10.2645" fill="#FFF8FC"/>
<rect id="Rectangle 254_14" x="188.507" y="474.716" width="15.1138" height="10.2645" fill="#FFF8FC"/>
<rect id="Rectangle 255_14" x="209.378" y="474.716" width="15.1138" height="10.2645" fill="#FFF8FC"/>
<rect id="Rectangle 256_14" x="230.25" y="474.716" width="15.1138" height="10.2645" fill="#FFF8FC"/>
</g>
<g id="Group 169_7">
<rect id="Rectangle 251_15" x="188.507" y="490.455" width="15.1138" height="10.2645" fill="#FFF8FC"/>
<rect id="Rectangle 252_15" x="209.378" y="490.455" width="15.1138" height="10.2645" fill="#FFF8FC"/>
<rect id="Rectangle 253_15" x="230.25" y="490.455" width="15.1138" height="10.2645" fill="#FFF8FC"/>
<rect id="Rectangle 254_15" x="188.507" y="506.193" width="15.1138" height="10.2645" fill="#FFF8FC"/>
<rect id="Rectangle 255_15" x="209.378" y="506.193" width="15.1138" height="10.2645" fill="#FFF8FC"/>
<rect id="Rectangle 256_15" x="230.25" y="506.193" width="15.1138" height="10.2645" fill="#FFF8FC"/>
</g>
</g>
<g id="Group 171_4">
<g id="Group 168_9">
<rect id="Rectangle 251_16" x="188.507" y="521.249" width="15.1138" height="10.2645" fill="#FFF8FC"/>
<rect id="Rectangle 252_16" x="209.378" y="521.248" width="15.1138" height="10.2645" fill="#FFF8FC"/>
<rect id="Rectangle 253_16" x="230.25" y="521.248" width="15.1138" height="10.2645" fill="#FFF8FC"/>
<rect id="Rectangle 254_16" x="188.507" y="536.987" width="15.1138" height="10.2645" fill="#FFF8FC"/>
<rect id="Rectangle 255_16" x="209.378" y="536.987" width="15.1138" height="10.2645" fill="#FFF8FC"/>
<rect id="Rectangle 256_16" x="230.25" y="536.987" width="15.1138" height="10.2645" fill="#FFF8FC"/>
</g>
<g id="Group 169_8">
<rect id="Rectangle 251_17" x="188.507" y="552.726" width="15.1138" height="10.2645" fill="#FFF8FC"/>
<rect id="Rectangle 252_17" x="209.378" y="552.726" width="15.1138" height="10.2645" fill="#FFF8FC"/>
<rect id="Rectangle 253_17" x="230.25" y="552.726" width="15.1138" height="10.2645" fill="#FFF8FC"/>
<rect id="Rectangle 254_17" x="188.507" y="568.465" width="15.1138" height="10.2645" fill="#FFF8FC"/>
<rect id="Rectangle 255_17" x="209.378" y="568.465" width="15.1138" height="10.2645" fill="#FFF8FC"/>
<rect id="Rectangle 256_17" x="230.25" y="568.465" width="15.1138" height="10.2645" fill="#FFF8FC"/>
</g>
</g>
<g id="Group 172_4">
<g id="Group 168_10">
<rect id="Rectangle 251_18" x="188.507" y="584.205" width="15.1138" height="10.2645" fill="#FFF8FC"/>
<rect id="Rectangle 252_18" x="209.378" y="584.204" width="15.1138" height="10.2645" fill="#FFF8FC"/>
<rect id="Rectangle 253_18" x="230.25" y="584.204" width="15.1138" height="10.2645" fill="#FFF8FC"/>
<rect id="Rectangle 254_18" x="188.507" y="599.943" width="15.1138" height="10.2645" fill="#FFF8FC"/>
<rect id="Rectangle 255_18" x="209.378" y="599.943" width="15.1138" height="10.2645" fill="#FFF8FC"/>
<rect id="Rectangle 256_18" x="230.25" y="599.943" width="15.1138" height="10.2645" fill="#FFF8FC"/>
</g>
</g>
</g>
</g>
</g>
<g id="Group 194">
<rect id="Rectangle 262" x="94" y="403" width="67" height="243" fill="#FFE8F6"/>
<rect id="Rectangle 263" x="64" y="403" width="30" height="243" fill="#A5BEFF"/>
<g id="Group 185_2">
<g id="Group 182_5">
<g id="Group 180_13">
<rect id="Rectangle 264_25" x="107.514" y="421" width="16.3178" height="26" fill="#A5BEFF"/>
<rect id="Rectangle 265_13" x="131.991" y="421" width="16.3178" height="26" fill="#A5BEFF"/>
</g>
<g id="Group 181_13">
<rect id="Rectangle 264_26" x="107.514" y="456" width="16.3178" height="26" fill="#A5BEFF"/>
<rect id="Rectangle 265_14" x="131.991" y="456" width="16.3178" height="26" fill="#A5BEFF"/>
</g>
</g>
<g id="Group 183_5">
<g id="Group 180_14">
<rect id="Rectangle 264_27" x="107.514" y="491" width="16.3178" height="26" fill="#A5BEFF"/>
<rect id="Rectangle 265_15" x="131.991" y="491" width="16.3178" height="26" fill="#A5BEFF"/>
</g>
<g id="Group 181_14">
<rect id="Rectangle 264_28" x="107.514" y="526" width="16.3178" height="26" fill="#A5BEFF"/>
<rect id="Rectangle 265_16" x="131.991" y="526" width="16.3178" height="26" fill="#A5BEFF"/>
</g>
</g>
<g id="Group 184_5">
<g id="Group 180_15">
<rect id="Rectangle 264_29" x="107.514" y="561" width="16.3178" height="26" fill="#A5BEFF"/>
<rect id="Rectangle 265_17" x="131.991" y="561" width="16.3178" height="26" fill="#A5BEFF"/>
</g>
<g id="Group 181_15">
<rect id="Rectangle 264_30" x="107.514" y="596" width="16.3178" height="26" fill="#A5BEFF"/>
<rect id="Rectangle 265_18" x="131.991" y="596" width="16.3178" height="26" fill="#A5BEFF"/>
</g>
</g>
</g>
</g>
<g id="Group 195">
<rect id="Rectangle 266" x="-116" y="504" width="200" height="145" fill="#FFE8F6"/>
<rect id="Rectangle 269" x="-41" y="531" width="54" height="16" fill="#A5BEFF"/>
<rect id="Rectangle 270" x="17" y="531" width="54" height="16" fill="#A5BEFF"/>
<rect id="Rectangle 272" x="-41" y="566" width="54" height="62" fill="#A5BEFF"/>
<rect id="Rectangle 273" x="17" y="566" width="54" height="62" fill="#A5BEFF"/>
</g>
<path id="Vector 19" d="M318.5 622H-29L-79 880.5L145.5 923L573.5 828.5L606 695.5L318.5 622Z" fill="#A5BEFF"/>
<path id="Rectangle 275" d="M247 639.711L270 639.711L407 813.5L311.5 822L247 639.711Z" fill="white"/>
<path id="Rectangle 277" d="M197.5 639.265L225 639.266L274.5 829L183.5 829L197.5 639.265Z" fill="white"/>
<path id="Rectangle 278" d="M157.5 640.254L182.5 640.254L130 832.5L60 827.5L157.5 640.254Z" fill="white"/>
<path id="Rectangle 279" d="M113 639.838L137 639.838L16 838L-32 779L113 639.838Z" fill="white"/>
<path id="Rectangle 280" d="M63 638.744L88 638.745L-51.5 750L-123 728.5L63 638.744Z" fill="white"/>
<path id="Rectangle 276" d="M296.5 639.266L334 639.266L462.5 714.5L409 751L296.5 639.266Z" fill="white"/>
</g>
</g>
</g>
</svg>
